<?xml version="1.0" encoding="UTF-8"?>
<svg id="Ebene_2" data-name="Ebene 2" xmlns="http://www.w3.org/2000/svg" viewBox="0 0 270.26 461.56">
  <defs>
    <style>
      .cls-1 {
        fill: #ff7a7a;
        stroke: #000;
        stroke-miterlimit: 10;
        stroke-width: 3px;
      }
    </style>
  </defs>
  <g id="Ebene_1-2" data-name="Ebene 1">
    <path class="cls-1" d="M181.26,120.83c-2.38-2.82-6.8-3.73-10.28-2.35-4.94,1.97-18.29,12.81-23.33,16.67-58.05,44.53-100.93,103.28-123.12,173.39-10.38-15.47-17.48-35.28-20.67-53.81-13.41-77.86,31.55-142.76,97.01-179.36,37.66-21.05,82.16-31.27,117.99-55.01,5.45-3.61,21.93-17.73,26.43-18.6,6.08-1.19,8.62,1.7,10.42,7.13,9.8,29.62,13.96,95.45,12.88,127.2-3.96,116.55-72.25,195.95-191.49,202.51-6,.33-13.19-3.19-16.29,4.71-3.77,9.58-7.99,34.9-9.25,45.75-2.17,18.69-.71,36.61-1.22,54.99-.56,20.29-24.33,21.71-26.68,1.89-4.58-38.62,3.73-85.29,14.17-122.6,21.27-76.03,59.04-126.5,120.26-174.74,5.05-3.98,20.12-13.03,23.02-16.97,2.27-3.08,2.66-7.8.14-10.79Z"/>
  </g>
</svg>